HIERARCHY
ROOT Hips
{
	OFFSET 0.000000 0.000000 0.000000
	CHANNELS 6 Xposition Yposition Zposition Zrotation Yrotation Xrotation 
	JOINT LHipJoint
	{
		OFFSET 0.000000 0.000000 0.000000
		CHANNELS 3 Zrotation Yrotation Xrotation
		JOINT LeftUpLeg
		{
			OFFSET 1.363060 -1.794630 0.839290
			CHANNELS 3 Zrotation Yrotation Xrotation
			JOINT LeftLeg
			{
				OFFSET 2.448110 -6.726130 0.000000
				CHANNELS 3 Zrotation Yrotation Xrotation
				JOINT LeftFoot
				{
					OFFSET 2.562200 -7.039590 0.000000
					CHANNELS 3 Zrotation Yrotation Xrotation
					JOINT LeftToeBase
					{
						OFFSET 0.157640 -0.433110 2.322550
						CHANNELS 3 Zrotation Yrotation Xrotation
						End Site
						{
							OFFSET 0.000000 0.000000 0.000000
						}
					}
				}
			}
		}
	}
	JOINT RHipJoint
	{
		OFFSET 0.000000 0.000000 0.000000
		CHANNELS 3 Zrotation Yrotation Xrotation
		JOINT RightUpLeg
		{
			OFFSET -1.305520 -1.794630 0.839290
			CHANNELS 3 Zrotation Yrotation Xrotation
			JOINT RightLeg
			{
				OFFSET -2.542530 -6.985550 0.000000
				CHANNELS 3 Zrotation Yrotation Xrotation
				JOINT RightFoot
				{
					OFFSET -2.568260 -7.056230 0.000000
					CHANNELS 3 Zrotation Yrotation Xrotation
					JOINT RightToeBase
					{
						OFFSET -0.164730 -0.452590 2.363150
						CHANNELS 3 Zrotation Yrotation Xrotation
						End Site
						{
							OFFSET 0.000000 0.000000 0.000000
						}
					}
				}
			}
		}
	}
}
MOTION
Frames: 13
Frame Time: 0.008333
3.340651 16.965699 -0.106734 164.285099 -83.609798 -157.319012 -11.123839 1.771885 0.734978 -2.839823 15.969181 -16.934681 -1.368157 -0.053569 18.934898 2.593939 17.399355 -5.004555 0.894500 -0.000001 -47.030700 10.003394 -1.819743 2.870218 0.851849 -0.193144 -18.227440 1.255924 -1.155076 26.921357 -1.401803 -5.097874 -9.419279 -0.023800 0.000001 -66.538900
3.336623 16.953079 -0.085284 168.765885 -81.523023 -161.690928 -11.210194 1.796464 0.510701 -2.873577 17.072826 -16.938122 -1.398583 0.004866 19.403108 2.737502 18.228594 -5.492580 0.785000 0.000000 -46.609600 9.909258 -1.755569 3.104238 0.720560 1.101334 -18.820161 1.248903 -1.156138 27.290557 -1.265904 -4.352768 -9.337643 -0.024699 -0.000000 -66.806200
3.327877 16.945295 -0.059196 171.913441 -79.385472 -164.698483 -11.273901 1.816624 0.292530 -2.885120 18.198549 -16.888988 -1.425882 0.045976 19.711178 2.882823 19.092119 -5.904131 0.692100 0.000000 -46.152800 9.832107 -1.715722 3.358519 0.613271 2.353476 -19.385423 1.263621 -1.149951 27.434238 -1.104577 -3.494819 -9.110221 -0.037400 -0.000000 -67.172900
3.314165 16.943042 -0.029399 174.200639 -77.216375 -166.820148 -11.330494 1.838486 0.089113 -2.893934 19.319075 -16.776219 -1.450205 0.070609 19.835191 3.028377 19.983572 -6.220190 0.625200 -0.000000 -45.656600 9.759115 -1.696265 3.621946 0.511336 3.524868 -19.905179 1.298536 -1.132751 27.340260 -0.917514 -2.518870 -8.729567 -0.055700 -0.000001 -67.643400
3.295194 16.946694 0.003052 175.907478 -75.038208 -168.332091 -11.388438 1.867349 -0.089120 -2.915762 20.411419 -16.612015 -1.472068 0.078963 19.764015 3.172165 20.891394 -6.426787 0.593401 -0.000000 -45.154300 9.683208 -1.694674 3.891785 0.408600 4.596689 -20.378768 1.351659 -1.100899 27.002391 -0.708444 -1.438224 -8.195463 -0.071800 0.000000 -68.196301
3.271051 16.956366 0.036847 177.188813 -72.866794 -169.389547 -11.452852 1.908105 -0.238307 -2.965348 21.467826 -16.399653 -1.492959 0.071441 19.486552 3.310781 21.798410 -6.511446 0.605699 -0.000000 -44.661200 9.601320 -1.708097 4.165228 0.296640 5.561753 -20.800254 1.420405 -1.052220 26.421235 -0.482246 -0.271420 -7.512803 -0.076100 -0.000001 -68.812500
3.242315 16.971836 0.070623 178.146071 -70.713871 -170.095912 -11.527502 1.963873 -0.357465 -3.053136 22.492334 -16.148758 -1.514961 0.048678 19.000508 3.440086 22.683065 -6.467367 0.669999 -0.000000 -44.194900 9.510976 -1.734670 4.443129 0.171502 6.429270 -21.168829 1.502020 -0.985413 25.603905 -0.245757 0.952055 -6.692380 -0.059200 -0.000001 -69.465500
3.209725 16.992517 0.103217 178.857205 -68.587857 -170.530266 -11.615603 2.035972 -0.449076 -3.183503 23.501000 -15.871312 -1.540730 0.011691 18.312495 3.555072 23.518455 -6.293302 0.790600 -0.000000 -43.774400 9.409638 -1.773857 4.728506 0.032512 7.221052 -21.484418 1.594062 -0.900171 24.563860 -0.006626 2.195754 -5.750066 -0.013200 -0.000001 -70.126000
3.174218 17.017558 0.133515 179.382430 -66.499331 -170.755093 -11.719343 2.123717 -0.517713 -3.355627 24.517610 -15.582052 -1.573086 -0.038509 17.439033 3.650361 24.274835 -5.994188 0.968200 0.000001 -43.414600 9.294930 -1.827038 5.026984 -0.118807 7.967603 -21.748362 1.694458 -0.797251 23.319846 0.227124 3.416636 -4.706785 0.066800 -0.000000 -70.766200
3.137463 17.045864 0.161080 179.771990 -64.457311 -170.834106 -11.840894 2.225148 -0.572733 -3.556897 25.571897 -15.287486 -1.615083 -0.098985 16.406233 3.720438 24.920444 -5.581892 1.197300 0.000000 -43.116800 9.164455 -1.893506 5.338864 -0.275492 8.696186 -21.950718 1.801899 -0.678017 21.894382 0.449095 4.575281 -3.583651 0.181800 -0.000000 -71.358300
3.100831 17.076170 0.185491 -179.932483 -62.488700 -170.818036 -11.978794 2.335931 -0.620200 -3.775823 26.685350 -15.002060 -1.668494 -0.168723 15.249689 3.760412 25.424942 -5.071492 1.468600 0.000000 -42.901200 9.018135 -1.977276 5.670227 -0.433388 9.434828 -22.089564 1.914883 -0.545562 20.317638 0.652562 5.625802 -2.408266 0.327800 -0.000000 -71.885300
3.065980 17.107234 0.207052 -179.694371 -60.624303 -170.760187 -12.129805 2.451980 -0.668244 -3.993327 27.873164 -14.730187 -1.734915 -0.244845 14.010850 3.766690 25.762101 -4.484739 1.765900 -0.000000 -42.762700 8.858142 -2.078436 6.018944 -0.584924 10.194028 -22.152614 2.031902 -0.403283 18.625293 0.833227 6.533641 -1.207375 0.496100 0.000000 -72.333000
3.034399 17.137917 0.226327 -179.484335 -58.904231 -170.705026 -12.286553 2.569497 -0.722738 -4.191382 29.132614 -14.473649 -1.814791 -0.324250 12.732648 3.737858 25.914925 -3.844094 2.071500 0.000000 -42.703400 8.690948 -2.194793 6.378944 -0.723415 10.968968 -22.129030 2.150466 -0.255252 16.860260 0.988047 7.272525 -0.009450 0.674800 -0.000000 -72.694700
